<svg width="36" height="36" viewBox="0 0 36 36" fill="none" xmlns="http://www.w3.org/2000/svg">
<path opacity="0.15" d="M1.03418 17.953C1.03418 27.2585 8.64776 34.8721 17.9532 34.8721C27.2587 34.8721 34.8723 27.2585 34.8723 17.953C34.8723 8.64751 27.2587 1.03394 17.9532 1.03394C8.64776 1.03394 1.03418 8.64751 1.03418 17.953Z" stroke="#1E2D78" stroke-width="1.8799" stroke-miterlimit="10"/>
<path d="M1.03418 17.953C1.03418 27.2585 8.64776 34.8721 17.9532 34.8721C27.2587 34.8721 34.8723 27.2585 34.8723 17.953C34.8723 8.64751 27.2587 1.03394 17.9532 1.03394C8.64776 1.03394 1.03418 8.64751 1.03418 17.953Z" stroke="#1E2D78" stroke-width="1.8799" stroke-miterlimit="10" stroke-dasharray="142.87 142.87"/>
<path d="M15.415 23.1228L20.5848 17.953L15.415 12.8773" stroke="#1E2D78" stroke-width="1.40992" stroke-miterlimit="10"/>
</svg>
