<svg width="40" height="40" viewBox="0 0 40 40" fill="none" xmlns="http://www.w3.org/2000/svg">
<rect width="40" height="40" rx="4" fill="#2E3192"/>
<g clip-path="url(#clip0_5_4606)">
<path d="M25.6246 23.7501C25.3575 23.7509 25.0937 23.8092 24.8511 23.921C24.6084 24.0328 24.3927 24.1954 24.2184 24.3979L16.207 20.3919C16.2639 20.1338 16.2639 19.8663 16.207 19.6082L24.2184 15.6022C24.5174 15.9376 24.9283 16.1525 25.3742 16.2069C25.8202 16.2613 26.2707 16.1514 26.6415 15.8977C27.0123 15.6441 27.278 15.2641 27.389 14.8287C27.4999 14.3934 27.4485 13.9325 27.2444 13.5324C27.0402 13.1322 26.6973 12.82 26.2798 12.6543C25.8622 12.4886 25.3986 12.4806 24.9755 12.6319C24.5525 12.7832 24.1991 13.0833 23.9813 13.4763C23.7636 13.8692 23.6964 14.328 23.7923 14.7669L15.7809 18.7729C15.5307 18.4838 15.198 18.2782 14.8276 18.1835C14.4572 18.0888 14.0667 18.1096 13.7085 18.2431C13.3502 18.3766 13.0413 18.6165 12.8232 18.9305C12.6052 19.2445 12.4883 19.6177 12.4883 20.0001C12.4883 20.3824 12.6052 20.7556 12.8232 21.0696C13.0413 21.3836 13.3502 21.6235 13.7085 21.757C14.0667 21.8905 14.4572 21.9113 14.8276 21.8167C15.198 21.722 15.5307 21.5163 15.7809 21.2272L23.7923 25.2332C23.7113 25.6123 23.7498 26.0073 23.9025 26.3637C24.0552 26.72 24.3147 27.0203 24.6451 27.2231C24.9756 27.4259 25.3608 27.5213 25.7477 27.4961C26.1346 27.4709 26.5042 27.3264 26.8055 27.0825C27.1069 26.8385 27.3253 26.5072 27.4305 26.134C27.5357 25.7608 27.5227 25.3642 27.3932 24.9988C27.2637 24.6333 27.0241 24.317 26.7074 24.0934C26.3906 23.8697 26.0124 23.7498 25.6246 23.7501ZM25.6246 13.4376C25.8101 13.4376 25.9913 13.4925 26.1455 13.5956C26.2997 13.6986 26.4198 13.845 26.4908 14.0163C26.5617 14.1876 26.5803 14.3761 26.5441 14.558C26.508 14.7398 26.4187 14.9069 26.2876 15.038C26.1564 15.1691 25.9894 15.2584 25.8075 15.2945C25.6257 15.3307 25.4372 15.3122 25.2659 15.2412C25.0946 15.1702 24.9482 15.0501 24.8451 14.8959C24.7421 14.7417 24.6871 14.5605 24.6871 14.3751C24.6871 14.1264 24.7859 13.888 24.9617 13.7121C25.1376 13.5363 25.376 13.4376 25.6246 13.4376ZM14.3746 20.9376C14.1892 20.9376 14.008 20.8826 13.8538 20.7796C13.6996 20.6765 13.5795 20.5301 13.5085 20.3588C13.4376 20.1875 13.419 19.999 13.4552 19.8172C13.4913 19.6353 13.5806 19.4683 13.7117 19.3371C13.8428 19.206 14.0099 19.1167 14.1918 19.0806C14.3736 19.0444 14.5621 19.063 14.7334 19.1339C14.9047 19.2049 15.0511 19.325 15.1542 19.4792C15.2572 19.6334 15.3121 19.8146 15.3121 20.0001C15.3121 20.2487 15.2134 20.4872 15.0376 20.663C14.8617 20.8388 14.6233 20.9376 14.3746 20.9376ZM25.6246 26.5626C25.4392 26.5626 25.258 26.5076 25.1038 26.4046C24.9496 26.3015 24.8295 26.1551 24.7585 25.9838C24.6876 25.8125 24.669 25.624 24.7052 25.4422C24.7413 25.2603 24.8306 25.0933 24.9617 24.9621C25.0928 24.831 25.2599 24.7417 25.4418 24.7056C25.6236 24.6694 25.8121 24.688 25.9834 24.7589C26.1547 24.8299 26.3011 24.95 26.4042 25.1042C26.5072 25.2584 26.5621 25.4396 26.5621 25.6251C26.5621 25.8737 26.4634 26.1122 26.2876 26.288C26.1117 26.4638 25.8733 26.5626 25.6246 26.5626Z" fill="white" stroke="white" stroke-width="0.46875"/>
</g>
<defs>
<clipPath id="clip0_5_4606">
<rect width="15" height="32" fill="white" transform="translate(12.5 4)"/>
</clipPath>
</defs>
</svg>
